<svg width="20" height="20" viewBox="0 0 20 20" fill="none" xmlns="http://www.w3.org/2000/svg">
<g id="Group">
<path id="Vector" fill-rule="evenodd" clip-rule="evenodd" d="M10 0C15.5232 0 20 4.47676 20 10C20 15.5232 15.5232 20 10 20C4.47676 20 0 15.5232 0 10C0 4.47676 4.47676 0 10 0Z" fill="#F0B90B"/>
<path id="Vector_2" d="M5.49599 10L5.50321 12.6443L7.75 13.9664V15.5145L4.1883 13.4255V9.22681L5.49599 10ZM5.49599 7.35582V8.89668L4.1875 8.12264V6.58178L5.49599 5.80774L6.8109 6.58178L5.49599 7.35582ZM8.6883 6.58178L9.99679 5.80774L11.3117 6.58178L9.99679 7.35582L8.6883 6.58178Z" fill="white"/>
<path id="Vector_3" d="M6.44141 12.0962V10.5481L7.7499 11.3222V12.863L6.44141 12.0962ZM8.6882 14.5209L9.99669 15.2949L11.3116 14.5209V16.0617L9.99669 16.8358L8.6882 16.0617V14.5209ZM13.1882 6.58178L14.4967 5.80774L15.8116 6.58178V8.12264L14.4967 8.89668V7.35582L13.1882 6.58178ZM14.4967 12.6443L14.5039 10L15.8124 9.22601V13.4247L12.2507 15.5137V13.9656L14.4967 12.6443Z" fill="white"/>
<path id="Vector_4" d="M13.5585 12.0962L12.25 12.863V11.3221L13.5585 10.5481V12.0962Z" fill="white"/>
<path id="Vector_5" d="M13.5584 7.90389L13.5656 9.45197L11.3124 10.7741V13.4247L10.0039 14.1916L8.69541 13.4247V10.7741L6.44221 9.45197V7.90389L7.75631 7.12985L9.99589 8.45838L12.2491 7.12985L13.564 7.90389H13.5584ZM6.44141 5.26046L9.99669 3.16431L13.5584 5.26046L12.2499 6.0345L9.99669 4.70597L7.7499 6.0345L6.44141 5.26046Z" fill="white"/>
</g>
</svg>
