<svg width="24" height="24" viewBox="0 0 24 24" fill="none" xmlns="http://www.w3.org/2000/svg">
<g id="logo/eth">
<path id="Vector" d="M23.5 12C23.5 18.3513 18.3513 23.5 12 23.5C5.64873 23.5 0.5 18.3513 0.5 12C0.5 5.64873 5.64873 0.5 12 0.5C18.3513 0.5 23.5 5.64873 23.5 12Z" fill="white" stroke="#E5E7EC"/>
<g id="Group 2554">
<path id="Vector_2" d="M11.999 4.36328V10.0089L16.906 12.1412L11.999 4.36328Z" fill="black" fill-opacity="0.602"/>
<path id="Vector_3" d="M11.9984 4.36328L7.09082 12.1412L11.9984 10.0089V4.36328Z" fill="black"/>
<path id="Vector_4" d="M11.999 15.7993V19.6354L16.9092 13.0293L11.999 15.7993Z" fill="black" fill-opacity="0.602"/>
<path id="Vector_5" d="M11.9984 19.6364V15.7996L7.09082 13.0303L11.9984 19.6364Z" fill="black"/>
<path id="Vector_6" d="M11.999 14.9123L16.906 12.1416L11.999 10.0107V14.9123Z" fill="black" fill-opacity="0.2"/>
<path id="Vector_7" d="M7.09082 12.1416L11.9984 14.9123V10.0107L7.09082 12.1416Z" fill="black" fill-opacity="0.602"/>
</g>
</g>
</svg>
