<svg width="20" height="20" viewBox="0 0 20 20" fill="none" xmlns="http://www.w3.org/2000/svg">
  <mask id="mask0_11295_81085" style="mask-type:alpha" maskUnits="userSpaceOnUse" x="0" y="0" width="20" height="20">
    <circle cx="10" cy="10" r="10" fill="#162E2F" />
  </mask>
  <g mask="url(#mask0_11295_81085)">
    <circle cx="10" cy="10" r="10" fill="#162E2F" />
    <path d="M-3.75 3.125H11.75V6.225L13.3 8.1625L11.75 10.1L14.4625 11.8438L11.75 13.5875V17.075H-3.75V3.125Z"
      fill="url(#paint0_linear_11295_81085)" />
    <rect y="6.25" width="7.5" height="1.875" fill="url(#paint1_linear_11295_81085)" />
    <rect x="7.5" y="13.75" width="7.5" height="1.875" transform="rotate(-180 7.5 13.75)"
      fill="url(#paint2_linear_11295_81085)" />
    <path
      d="M14.8568 7.41093C14.7078 5.88827 13.3935 5.37997 11.7348 5.23738L11.7312 3.125L10.4464 3.12735L10.45 5.18408C10.1122 5.18463 9.76696 5.19191 9.4239 5.19933L9.42063 3.12894L8.13655 3.13109L8.13968 5.24289C7.86158 5.24906 7.58835 5.25475 7.32202 5.25533L7.32185 5.24873L5.5498 5.25106L5.55246 6.62436C5.55246 6.62436 6.5012 6.60471 6.48548 6.62213C7.00581 6.62138 7.17576 6.92351 7.22557 7.18432C7.22888 9.11464 7.23206 11.0407 7.23511 12.9713C7.21263 13.1352 7.1168 13.3968 6.75317 13.398C6.7697 13.4125 5.81925 13.3994 5.81925 13.3994L5.56649 14.9354L7.23854 14.9326C7.54971 14.9325 7.85586 14.9372 8.15649 14.9385L8.16066 17.075L9.4441 17.073L9.44044 14.9591C9.79288 14.9658 10.1338 14.968 10.4669 14.9672L10.4698 17.0713L11.7547 17.0689L11.7515 14.9363C13.9113 14.8086 15.4222 14.2615 15.6065 12.2311C15.7553 10.5963 14.9858 9.86826 13.7592 9.57565C14.5035 9.19474 14.9681 8.52513 14.8572 7.41098L14.8568 7.41081L14.8568 7.41093ZM13.0669 11.9822C13.0703 13.5788 10.3383 13.4018 9.46755 13.4041L9.46313 10.5734C10.3341 10.5722 13.0642 10.3169 13.0669 11.9822L13.0669 11.9822ZM12.4626 7.98946C12.4647 9.44199 10.1862 9.27636 9.46092 9.27762L9.45671 6.71037C10.182 6.70911 12.4599 6.4745 12.4627 7.98943L12.4626 7.98946Z"
      fill="#C4FDF2" />
  </g>
  <defs>
    <linearGradient id="paint0_linear_11295_81085" x1="14.4625" y1="10.1" x2="-3.75" y2="10.1"
      gradientUnits="userSpaceOnUse">
      <stop stop-color="#4E988D" />
      <stop offset="1" stop-color="#264C4A" />
    </linearGradient>
    <linearGradient id="paint1_linear_11295_81085" x1="3.75" y1="6.25" x2="3.75" y2="8.125"
      gradientUnits="userSpaceOnUse">
      <stop stop-opacity="0.1" />
      <stop offset="1" stop-opacity="0" />
    </linearGradient>
    <linearGradient id="paint2_linear_11295_81085" x1="11.25" y1="13.75" x2="11.25" y2="15.625"
      gradientUnits="userSpaceOnUse">
      <stop stop-opacity="0.1" />
      <stop offset="1" stop-opacity="0" />
    </linearGradient>
  </defs>
</svg>