<svg width="32" height="32" viewBox="0 0 32 32" fill="none" xmlns="http://www.w3.org/2000/svg">
  <rect width="32" height="32" rx="16" fill="url(#paint0_linear_17030_6187)" />
  <mask id="mask0_17030_6187" style="mask-type:alpha" maskUnits="userSpaceOnUse" x="0" y="0" width="32" height="32">
    <rect width="32" height="32" rx="16" fill="black" />
  </mask>
  <g mask="url(#mask0_17030_6187)">
  </g>
  <path d="M24.8481 6.87427L17.3528 12.4411L18.7388 9.15675L24.8481 6.87427Z" fill="#E2761B" stroke="#E2761B"
    stroke-width="0.112994" stroke-linecap="round" stroke-linejoin="round" />
  <path
    d="M7.54487 6.87427L14.9799 12.4939L13.6616 9.15675L7.54487 6.87427ZM22.1513 19.7782L20.155 22.8366L24.4262 24.0117L25.6541 19.846L22.1513 19.7782ZM6.75391 19.846L7.97425 24.0117L12.2454 22.8366L10.2492 19.7782L6.75391 19.846Z"
    fill="#E4761B" stroke="#E4761B" stroke-width="0.112994" stroke-linecap="round" stroke-linejoin="round" />
  <path
    d="M12.0044 14.6105L10.8142 16.4109L15.0553 16.5992L14.9046 12.0417L12.0044 14.6105ZM20.3886 14.6105L17.4507 11.989L17.3528 16.5992L21.5863 16.4109L20.3886 14.6105ZM12.2455 22.8365L14.7916 21.5935L12.592 19.876L12.2455 22.8365ZM17.6014 21.5935L20.1551 22.8365L19.801 19.876L17.6014 21.5935Z"
    fill="#E4761B" stroke="#E4761B" stroke-width="0.112994" stroke-linecap="round" stroke-linejoin="round" />
  <path
    d="M20.155 22.8364L17.6013 21.5935L17.8047 23.2583L17.7821 23.9589L20.155 22.8364ZM12.2454 22.8364L14.6182 23.9589L14.6032 23.2583L14.7915 21.5935L12.2454 22.8364Z"
    fill="#D7C1B3" stroke="#D7C1B3" stroke-width="0.112994" stroke-linecap="round" stroke-linejoin="round" />
  <path
    d="M14.656 18.7763L12.5317 18.1511L14.0308 17.4656L14.656 18.7763ZM17.737 18.7763L18.3622 17.4656L19.8688 18.1511L17.737 18.7763Z"
    fill="#233447" stroke="#233447" stroke-width="0.112994" stroke-linecap="round" stroke-linejoin="round" />
  <path
    d="M12.2453 22.8365L12.6068 19.7781L10.249 19.8459L12.2453 22.8365ZM19.7933 19.7781L20.1549 22.8365L22.1511 19.8459L19.7933 19.7781ZM21.5861 16.4109L17.3526 16.5992L17.7443 18.7762L18.3695 17.4655L19.8761 18.151L21.5861 16.4109ZM12.5315 18.151L14.0381 17.4655L14.6558 18.7762L15.055 16.5992L10.814 16.4109L12.5315 18.151Z"
    fill="#CD6116" stroke="#CD6116" stroke-width="0.112994" stroke-linecap="round" stroke-linejoin="round" />
  <path
    d="M10.8142 16.4109L12.592 19.876L12.5317 18.151L10.8142 16.4109ZM19.8764 18.151L19.801 19.876L21.5863 16.4109L19.8764 18.151ZM15.0553 16.5992L14.656 18.7762L15.1532 21.345L15.2662 17.9627L15.0553 16.5992ZM17.3528 16.5992L17.1494 17.9551L17.2398 21.345L17.7445 18.7762L17.3528 16.5992Z"
    fill="#E4751F" stroke="#E4751F" stroke-width="0.112994" stroke-linecap="round" stroke-linejoin="round" />
  <path
    d="M17.7445 18.7761L17.2398 21.3449L17.6014 21.5934L19.801 19.8759L19.8764 18.1509L17.7445 18.7761ZM12.5317 18.1509L12.592 19.8759L14.7916 21.5934L15.1532 21.3449L14.656 18.7761L12.5317 18.1509Z"
    fill="#F6851B" stroke="#F6851B" stroke-width="0.112994" stroke-linecap="round" stroke-linejoin="round" />
  <path
    d="M17.7821 23.9588L17.8047 23.2583L17.6164 23.0925H14.7764L14.6032 23.2583L14.6182 23.9588L12.2454 22.8364L13.074 23.5144L14.7538 24.682H17.639L19.3263 23.5144L20.155 22.8364L17.7821 23.9588Z"
    fill="#C0AD9E" stroke="#C0AD9E" stroke-width="0.112994" stroke-linecap="round" stroke-linejoin="round" />
  <path
    d="M17.6014 21.5936L17.2398 21.345H15.1532L14.7916 21.5936L14.6033 23.2583L14.7765 23.0926H17.6165L17.8048 23.2583L17.6014 21.5936Z"
    fill="#161616" stroke="#161616" stroke-width="0.112994" stroke-linecap="round" stroke-linejoin="round" />
  <path
    d="M25.1644 12.8027L25.8047 9.72926L24.8481 6.87427L17.6014 12.2528L20.3885 14.6106L24.3283 15.7632L25.2021 14.7462L24.8255 14.475L25.4281 13.9251L24.9611 13.5635L25.5637 13.104L25.1644 12.8027ZM6.5957 9.72926L7.236 12.8027L6.82922 13.104L7.43186 13.5635L6.97235 13.9251L7.57499 14.475L7.19834 14.7462L8.06463 15.7632L12.0044 14.6106L14.7916 12.2528L7.54486 6.87427L6.5957 9.72926Z"
    fill="#763D16" stroke="#763D16" stroke-width="0.112994" stroke-linecap="round" stroke-linejoin="round" />
  <path
    d="M24.3283 15.7631L20.3886 14.6106L21.5863 16.411L19.801 19.8761L22.1513 19.846H25.6541L24.3283 15.7631ZM12.0044 14.6106L8.06464 15.7631L6.75391 19.846H10.2492L12.5919 19.8761L10.8142 16.411L12.0044 14.6106ZM17.3528 16.5993L17.6014 12.2528L18.7464 9.15674H13.6616L14.7916 12.2528L15.0552 16.5993L15.1456 17.9703L15.1532 21.3451H17.2398L17.2548 17.9703L17.3528 16.5993Z"
    fill="#F6851B" stroke="#F6851B" stroke-width="0.112994" stroke-linecap="round" stroke-linejoin="round" />
  <defs>
    <linearGradient id="paint0_linear_17030_6187" x1="16" y1="0" x2="16" y2="33" gradientUnits="userSpaceOnUse">
      <stop stop-color="#FFF6EA" />
      <stop offset="1" stop-color="#E8CCAD" />
    </linearGradient>
  </defs>
</svg>