<?xml version="1.0" encoding="UTF-8"?>
<svg version="1.1" viewBox="0 0 1000 1000" width="250" height="250"
  xmlns="http://www.w3.org/2000/svg">
  <path transform="translate(458)"
    d="m0 0h84l50 8 28 6 26 7 30 10 29 12 25 12 22 12 22 14 16 11 16 12 16 13 10 9 8 7 13 12 10 10 7 8 9 10 9 11 12 15 12 17 10 15 15 25 14 27 11 24 11 29 10 33 6 25 6 32 5 35v76l-6 42-7 36-8 30-10 30-12 29-14 29-13 23-15 24-12 16-8 11-13 16-11 12-7 8-27 27-11 9-11 10-16 12-18 13-19 12-24 14-32 16-32 13-33 11-36 9-39 7-27 4h-79l-61-10-30-7-33-10-31-12-26-12-25-13-20-12-18-12-18-13-16-13-13-11-12-11-29-29-7-8-14-17-15-20-16-24-9-15-10-18-8-16-9-19-12-31-9-28-8-32-4-21-6-39-1-7v-84l9-54 6-26 7-25 9-27 10-24 9-20 10-19 12-21 14-22 21-28 14-17 12-13 9-10 17-17 8-7 15-13 18-14 18-13 14-9 25-15 27-14 27-12 27-10 29-9 30-7 34-6z"
    fill="#FEFEFE" />
  <path transform="translate(482,188)"
    d="m0 0 10 1 44 11-1 10-16 64-2 7v7l28 6 13 3 4-18 17-67 10 1 43 11 1 1-1 9-16 64-3 11 1 5 21 8 18 8 16 9 12 8 14 12 9 10 9 15 5 13 3 13v25l-4 19-6 17-8 14-11 12-7 6-14 8-12 5-5 2 2 2 10 5 14 11 11 11 9 14 5 11 4 14 1 8v16l-3 18-8 26-10 21-8 12-12 14-12 9-10 6-15 6-18 5-13 2-12 1h-13l-36-3-23-3-7-2-4 17-18 71-4 1-47-12-4-2 4-16 16-65 1-6-6-2-28-7-7-1-9 34-13 52-4 1-46-12-5-2 4-17 17-68v-4l-94-24-13-4 2-6 11-26 12-28 2-2 10 2 32 8 10-1 4-3h2l2-4 4-9 21-83 18-73 20-80v-13l-5-10-7-6-16-6-32-8-3-2 1-6 12-48 2-3 19 4 83 21 5 1 4-13 18-71z"
    fill="#034FFE" />
  <path transform="translate(458)"
    d="m0 0h84l50 8 28 6 26 7 30 10 29 12 25 12 22 12 22 14 16 11 16 12 16 13 10 9 8 7 13 12 10 10 7 8 9 10 9 11 12 15 12 17 10 15 15 25 14 27 11 24 11 29 10 33 6 25 6 32 5 35v76l-6 42-7 36-8 30-10 30-12 29-14 29-13 23-15 24-12 16-8 11-13 16-11 12-7 8-27 27-11 9-11 10-16 12-18 13-19 12-24 14-32 16-32 13-33 11-36 9-39 7-27 4h-79l-61-10-30-7-33-10-31-12-26-12-25-13-20-12-18-12-18-13-16-13-13-11-12-11-29-29-7-8-14-17-15-20-16-24-9-15-10-18-8-16-9-19-12-31-9-28-8-32-4-21-6-39-1-7v-84l9-54 6-26 7-25 9-27 10-24 9-20 10-19 12-21 14-22 21-28 14-17 12-13 9-10 17-17 8-7 15-13 18-14 18-13 14-9 25-15 27-14 27-12 27-10 29-9 30-7 34-6zm35 47-30 1-40 5-29 6-33 9-28 10-25 11-16 8-24 13-17 11-16 11-13 10-11 9-14 12-13 12-17 17-7 8-12 14-14 18-13 19-10 16-11 19-8 16-9 19-9 23-9 27-8 31-5 27-4 33-1 13v47l3 34 6 36 6 26 9 29 10 27 9 20 12 24 13 22 15 22 9 12 13 16 7 8 9 10 8 8 5 6 8 7 9 9 11 9 9 8 12 9 17 12 17 11 23 13 16 8 19 9 26 10 25 8 32 8 27 5 35 4 15 1h36l34-3 28-4 29-6 31-9 28-10 27-12 20-10 27-16 19-13 16-12 14-11 11-10 8-7 26-26 7-8 11-13 12-16 12-17 13-21 13-24 8-16 11-26 9-25 8-28 7-33 4-29 2-24v-44l-2-26-4-30-6-30-8-29-9-26-10-24-12-25-14-25-13-20-13-18-13-16-9-11-15-16-16-16-8-7-10-9-14-11-11-8-14-10-19-12-19-11-16-8-22-10-26-10-25-8-28-7-35-6-28-3-28-1z"
    fill="#034FFE" />
  <path transform="translate(460,515)"
    d="m0 0 8 1 42 10 30 10 21 10 11 7 10 8 8 10 6 12 2 9v11l-4 16-6 10-4 5-13 9-18 6-15 2h-15l-27-3-31-6-32-8-2-1 1-9 17-69 10-39z"
    fill="#FEFEFE" />
  <path transform="translate(501,352)"
    d="m0 0 18 4 24 6 24 8 17 9 9 5 7 6v2h2l7 10 4 9 1 4v19l-3 10-7 12-9 8-10 5-9 3-11 2h-21l-22-3-28-6-20-5v-6l4-14 18-73 4-14z"
    fill="#FEFEFE" />
</svg>