<svg version="1.1" viewBox="0 0 800 800" width="200" height="200" xmlns="http://www.w3.org/2000/svg">
    <path transform="translate(368)"
        d="m0 0h64l38 6 24 5 26 7 28 10 25 11 25 13 24 15 18 13 22 18 13 12 21 21 7 8 13 16 13 18 11 17 12 21 8 16 10 22 9 24 8 28 7 34 3 22 2 28v32l-2 24-4 28-6 29-8 27-9 25-12 26-13 25-14 22-13 18-13 16-11 12-7 8-16 16-8 7-14 12-19 14-23 15-23 13-27 13-24 9-21 7-28 7-28 5-23 3-11 1h-45l-41-5-30-6-23-6-29-10-25-11-16-8-20-11-24-16-16-12-11-9-11-10-8-7-18-18-7-8-12-14-14-19-10-15-13-22-10-19-11-25-10-28-7-26-6-29-5-34v-65l6-38 6-28 8-27 10-27 11-24 10-19 14-23 10-14 9-12 13-16 11-12 6-7 6-5 14-14 11-9 15-12 17-12 19-12 22-12 25-12 24-9 18-6 32-8 35-6z"
        fill="#0E0B33" />
    <path transform="translate(368)"
        d="m0 0h64l38 6 24 5 26 7 28 10 25 11 25 13 24 15 18 13 22 18 13 12 21 21 7 8 13 16 13 18 11 17 12 21 8 16 10 22 9 24 8 28 7 34 3 22 2 28v32l-2 24-4 28-6 29-8 27-9 25-12 26-13 25-14 22-13 18-13 16-11 12-7 8-16 16-8 7-14 12-19 14-23 15-23 13-27 13-24 9-21 7-28 7-28 5-23 3-11 1h-45l-41-5-30-6-23-6-29-10-25-11-16-8-20-11-24-16-16-12-11-9-11-10-8-7-18-18-7-8-12-14-14-19-10-15-13-22-10-19-11-25-10-28-7-26-6-29-5-34v-65l6-38 6-28 8-27 10-27 11-24 10-19 14-23 10-14 9-12 13-16 11-12 6-7 6-5 14-14 11-9 15-12 17-12 19-12 22-12 25-12 24-9 18-6 32-8 35-6zm2 24-33 4-28 6-25 7-20 7-21 9-16 8-17 9-19 12-18 13-16 13-10 8v2l-4 2-24 24-9 11-13 16-16 24-9 15-14 27-12 29-8 24-8 32-5 33-2 35v13l3 39 5 30 7 28 9 27 7 18 7 15 15 28 11 17 12 17 14 17 18 20 11 11 8 7 10 9 17 13 10 7 19 12 25 14 29 13 25 9 25 7 24 5 28 4 14 1h46l28-3 24-4 26-6 36-12 25-11 20-10 20-12 19-13 12-9 14-12 8-7 13-12 14-15 9-11 12-15 7-10 10-15 12-21 8-16 8-17 9-24 8-27 6-29 4-29 1-13v-48l-4-33-5-27-9-32-10-27-11-24-10-19-14-22-13-18-9-11-12-14-14-15-8-8-8-7-13-11-20-15-15-10-26-15-25-12-26-10-26-8-26-6-33-5-9-1z"
        fill="#0F0C35" />
    <path transform="translate(413,198)"
        d="m0 0h30l1 1v60l9 2 23 3 21 7 13 7 9 7 7 7 8 14 4 11 1 5v25l-4 14-7 13-4 5-10 8-6 2v2l9 2 16 8 10 8 8 9 7 14 3 12 1 8v14l-3 20-5 15-7 13-11 12-13 9-15 7-21 6-27 4-16 1v63l-11 1h-24l-5-2v-62l-28 1-1 62-1 1h-39l-1-23v-41l-77-1 1-9 6-36 2-3h29l7-2 3-4 1-3v-178l-4-8-5-4-3-1-37-1v-42h64l5 1 1 8-2 4v16l6 18 5 19 4 21 4 13 3 12 11 32 3 12 3 7 4 4 4 11 2 7 1 12v48l3-1 41-1 17-2 19-5 14-7 5-4 6-9 2-7v-12l-3-10-6-9-10-7-13-5-11-4v-3l-2-1v-10l3-3-6-21h-2l1-4h2v-2h2v-3l11-5 10-7 5-9 1-4v-14l-4-11-8-9-13-6-11-3-7-1v-2l-18-1 2-2-1-8 4-4-3-10-1-8 1-1-2-1 2-11 1-59z"
        fill="#4A84F1" />
    <path transform="translate(370,24)"
        d="m0 0h59l31 4 29 6 25 7 20 7 26 11 25 13 21 13 17 12 13 10 15 13 13 12 9 9 7 8 13 15 14 19 12 18 9 15 12 23 9 21 9 25 8 29 5 27 4 33v48l-3 29-5 29-7 27-9 27-10 23-8 16-9 17-9 14-8 12-9 12-9 11-12 14-12 13-17 16-10 8-11 9-17 12-19 12-18 10-27 13-27 10-23 7-33 7-29 4-12 1h-46l-22-2-30-5-26-6-33-11-30-13-19-10-20-12-12-8-16-12-11-9-12-11-10-9-11-11-7-8-11-13-10-13-11-16-11-18-9-16-15-33-8-22-8-28-5-24-4-28-2-30v-13l2-35 5-33 8-32 9-27 12-28 10-20 13-22 11-16 9-12 13-16 12-13 18-18h2v-2l11-9 16-13 20-14 25-15 16-8 19-9 24-9 27-8 27-6 27-4zm12 14-31 3-29 5-27 7-29 10-20 9-16 8-18 10-21 14-16 12-13 11-10 9-3 2v2l-4 2-15 16-11 13-15 20-12 18-12 21-10 21-5 11-9 24-8 28-6 31-3 24-1 17v28l2 26 4 26 6 27 8 26 11 27 12 25 15 25 8 12 16 21 10 11 14 16 8 7 14 13 17 13 17 12 18 11 22 12 22 10 27 10 26 7 25 5 31 4 31 1 24-1 38-5 27-6 29-9 28-11 16-8 19-10 17-11 14-10 18-14 15-14 4-3v-2l4-2 6-7 5-5 13-14 13-17 11-16 9-15 12-22 8-17 10-27 7-24 5-22 4-26 3-29v-29l-4-39-6-31-7-25-8-23-9-21-11-22-14-23-10-14-10-13-12-14-9-10-18-18-11-9-9-8-18-13-19-12-21-12-21-10-28-11-23-7-28-6-26-4-23-2z"
        fill="#F28F3B" />
    <path transform="translate(413,198)"
        d="m0 0h30l1 1v60l9 2 23 3 21 7 13 7 9 7 7 7 8 14 4 11 1 5v25l-4 14-7 13-4 5-10 8-6 2v2l9 2 16 8 10 8 8 9 7 14 3 12 1 8v14l-3 20-5 15-7 13-11 12-13 9-15 7-17 5-20 2 1-7 1-14-4-5-5-10v-2h-2l-3-7 1-5 5-4 2-4 7-5 6-9 2-7v-12l-3-10-6-9-10-7-13-5-11-4v-3l-2-1v-10l3-3-6-21h-2l1-4h2v-2h2v-3l11-5 10-7 5-9 1-4v-14l-4-11-8-9-13-6-11-3-7-1v-2l-18-1 2-2-1-8 4-4-3-10-1-8 1-1-2-1 2-11 1-59z"
        fill="#8E59F2" />
    <path transform="translate(336,197)"
        d="m0 0h39v61h30l-1-39v-21l1-1h39l1 1v61l21 3v1l-13-1-9-2-1-1v-60h-30l-6 1-1 59-2 8-1 3 3 1-1 5 3 11 1 3-4 4 1 9 15 2v2h7l14 4 11 6 8 9 4 11v14l-4 10-5 6-9 6-7 3h-3v3h-2v2l-2 1-1 3h2l4 9 3 13h-3v12l1 4 4 1 18 6 11 7 6 7 4 9 1 5v12l-3 9-7 9-11 7-13 5-19 4-11 1-44 1-1-48-1-12-4-13-1-5-3-1-3-4-5-18-11-32-4-15-4-14-5-26-8-26-1-2v-18l2-2-1-7-4-1-63-1v-1h78z"
        fill="#6065E9" />
    <path transform="translate(309,373)"
        d="m0 0 3 3 4 15 2 12 3 13 3 12 5 9 5 19 3 10 4 20 7 21 4 9 8 24 6 12h7l1 1v5l-1 4 1 13v42h-39l-1-23v-41l-77-1 1-9 6-36 2-3h29l7-2 3-4 2-4 1-108z"
        fill="#3A98F7" />
    <path transform="translate(376,422)"
        d="m0 0h51l16 2 18 6 11 7 6 7 4 9 1 5v12l-3 9-7 9-11 7-13 5-19 4-11 1h-43z" fill="#0E0B33" />
    <path transform="translate(464,493)"
        d="m0 0h2l-2 4-4 3 1 6 1 5h2l8 15 2 3v6l-1 7v4h-2v3l10-2h6v1l-27 4-16 1v63l-11 1h-24l-5-2v-62h-8l-5-7-4-3v-2l-2-1-1-6v-9l-2-8-4-10v-2l41-1 17-2 19-5z"
        fill="#6065E9" />
    <path transform="translate(377,305)"
        d="m0 0h26l18 1 15 3 12 5 6 4 7 8 4 11v14l-4 10-5 6-9 6-10 4-14 3-10 1h-37v-75z"
        fill="#0E0B33" />
    <path transform="translate(308,481)"
        d="m0 0h1l1 13 2 3 2 16 2 7 2 13 5 8 8 6 1 4-56 1h-19l1-9 6-36 2-3h29l7-2 3-4 2-4z"
        fill="#28B0FD" />
    <path transform="translate(627,97)"
        d="m0 0 5 1 12 6 13 13 4 5 11 9 9 9 9 5-2-6-4-7 2-2 5 6 5 5 10 11 10 13 5 6 3 9 7 12 9 15 11 22v7h-2l-1 3 3 6v4l3 12 2 5-1 5-4-3-8-20-14-29-14-23-12-17-9-12-11-13-18-20-9-9-8-7-13-11-4-3-1-3-3-3z"
        fill="#0A0928" />
    <path transform="translate(377,305)"
        d="m0 0h26l18 1 15 3 12 5 6 4 7 8 4 11v14l-4 10-5 6-9 6-10 4-14 3-10 1h-37v-75zm11 9-1 4 2 1v2h-3v3h-3l-1 8-1 12-1 8v11l1 8 8 4 19-2 2-1 9-1 5-1 7 1 4 1 6-3-1-3 4-1v-2l4-2v-2l4-2 2-5 1-9-3-8-6-9-5-4-8-4-11-3-18-1z"
        fill="#0A0928" />
    <path transform="translate(377,422)"
        d="m0 0h50l16 2 18 6 11 7 6 7 4 9 1 5v12l-3 9-7 9-11 7-13 5-19 4-11 1h-42v-8l11 2 6-1 4-1h19l16-3h8v2l8-2v-2l-2-1 8-3 3 1 7-5 8-16-2-9-9-16-7-5-10-5-7-1-4-1h-16l-11 1-17-2-7 3-1 7-3 2-2 4z"
        fill="#0A0928" />
    <path transform="translate(258,304)"
        d="m0 0h39l7 6 3 7v178l-3 6-4 3-5 1h-26l-1-3 5-2 15-1 9-4 2-5v-57l1-22v-82l-2-10-2-4-7-4-20-1-2-1v-2h-6z"
        fill="#0A0927" />
    <path transform="translate(264,261)"
        d="m0 0h57l5 1 1 8-2 4v16l6 18 5 19 4 21 4 13 3 12 11 32 3 12 3 7 4 4 4 11 2 7 1 12v45h-1l-1-34-3-7-3 6-4-1-8-32-1-3v-6l-2-8-4-12-4-14-5-17-2-10-1-4-4-25-5-23-2-9-2-4v-9l-2-3-1-7-2-4-1-8h2l1-6-56-1z"
        fill="#4A79EB" />
    <path transform="translate(451,212)"
        d="m0 0 2 1 1 3 1 18-1 11 2 7 9 2 7 1v2l9 2 24 9 3 3v2l3-1 1 2 5 1 8 6 5 5 4 5 5 9 3 5 2 14 1 4-1 4-1 25-1 7-4 5-3 6h-2l-1 7-6 6v9l-1 3h-6l-11-4v-2l9-5 5-5h2l2-4 6-10 5-13 1-5v-25l-4-14-7-13-9-10-11-8-15-7-16-5-28-5-3-1 1-39z"
        fill="#0A0928" />
    <path transform="translate(373,193)"
        d="m0 0 3 1v2l6 3 4 15 2 10 2 3 3-17 2-9 5-5 3 1 1 4 1 18v39l-23 1-7-1v-62l-4-1z"
        fill="#0A0927" />
    <path transform="translate(257,261)"
        d="m0 0 28 1 3 4-1 4h-2v3h-2l5 13 2 7 5 2 1 3 3 1-1 5-41-1z" fill="#3B96F7" />
    <path transform="translate(376,553)"
        d="m0 0h28v60h-3l-3-3-1-6-2-1-2-7-3-10-4 2-3 2-2 15-4 4h-1z" fill="#0A0927" />
    <path transform="translate(771,463)"
        d="m0 0 2 1 1 5-2 9-1 12-2 3-2 13-2 3-1 10-3 4-2 8-6 15-5 11-10 20-2 6-4 4-2 5-4 7h-2v4h-2l-1 3h-2v3h-2l-2 6h-2l-1 2h-2l-1 5-10 10-4-1 13-18 10-15 12-21 8-16 8-17 9-24 8-27 3-13h2l2-13zm-77 169m-1 1 2 1-1 4-1 3-5 4-6 7-5 3-2-1 11-12z"
        fill="#0A0929" />
    <path transform="translate(104,193)"
        d="m0 0 1 3-5 9-2 4h-2l-1 4-4 11-5 11-9 19-4 9-3 9-2 7h-2l-3 11-3 8-5 15-4 10-3 11-2 2v-13l6-24 9-27 8-20 8-16 9-17 11-18 5-5z"
        fill="#0A0928" />
    <path transform="translate(502,543)"
        d="m0 0h5l-2 4-9 2-4 4-16 3v3l-9-1-7 3-4 6h-2l-2 26-1 18-5 2-1-2v-58l1-1 23-2 22-4z"
        fill="#0A0927" />
    <path transform="translate(35,500)"
        d="m0 0 2 2 4 13v2h2l8 22 8 18 8 17 12 21 8 13 2 7-5-5-3-5-8-13-5-5-3-6-3-5-4-4h-3l-3-9v-3l-2-1-3-4-1-4-2-6 1-3-4-4-1-4 1-1-1-4-2-2-1-11-1-7z"
        fill="#0B0929" />
    <path transform="translate(280,553)"
        d="m0 0h55v26l-1 32-3-1-1-5-2-1-1-29-1-10-5-6h-32l-4-1-2-3z" fill="#0A0927" />
    <path transform="translate(333,204)"
        d="m0 0 2 2v53l-1 1h-24l-15-1v-1l14-2v-2l12-2 4-2 3-13v-16l4-6v-5l-2-1 1-3h2z"
        fill="#0A0927" />
    <path transform="translate(538,317)"
        d="m0 0 2 4 1 6 1 19 1 4-1 9-4 5-3 6h-2l-1 7-6 6v9l-1 3h-6l-11-4v-2l9-5 5-5h2l2-4 6-10 5-13 1-5z"
        fill="#0B092A" />
    <path transform="translate(701,203)"
        d="m0 0 3 1 14 24 11 22 8 19v6l-5-2-3-9-2-5-1-6h-2l-2-7-3-6-4-7-1-4-3-9h-2l-4-8-4-6z"
        fill="#0B0929" />
    <path transform="translate(130,634)"
        d="m0 0 7 6 8 6v2l4 2 4 4v2l3 1 4 6 1 4h-3l-6-4-10-9-7-8-5-6z" fill="#0A0928" />
    <path transform="translate(95,590)" d="m0 0 4 1 5 8 8 11 9 11 7 10-1 2-5-2-7-8-13-18-6-9z"
        fill="#0B092A" />
    <path transform="translate(549,512)" d="m0 0h2v3h-2l-2 7-6 7-14 10-5 1-7 1 3-3 5-4 13-9 12-12z"
        fill="#0A0928" />
    <path transform="translate(554,421)" d="m0 0 7 2 5 17 1 8-5-1v-3h-2l-3-12-3-7z" fill="#0A0928" />
    <path transform="translate(413,189)" d="m0 0h12l7 1v2l4 2v1h-29v-2h2v-2z" fill="#0A0927" />
    <path transform="translate(262,512)" d="m0 0h1l-1 13-3 18-2 2-2-4-1-7 2-10 2-7 3-1z"
        fill="#0A0928" />
    <path transform="translate(563,469)" d="m0 0 4 1-2 9h-2l-2 13-2 5h-2l-2 4 1-8 4-18z"
        fill="#0A0929" />
    <path transform="translate(374,552)" d="m0 0h22v1l-20 1-1 62h-1l-1-47-1-10z" fill="#4B79EB" />
    <path transform="translate(695,631)" d="m0 0m-1 1m-1 1 2 1-1 4-1 3-5 4-6 7-5 3-2-1 11-12z"
        fill="#0E0B33" />
    <path transform="translate(348,191)" d="m0 0h9l7 2 2 2-6 1h-16l2-4z" fill="#0A0927" />
    <path transform="translate(433,617)" d="m0 0 3 2-2 3-5 1h-9l-2-4 2-1z" fill="#0A0927" />
    <path transform="translate(167,673)" d="m0 0 6 2 7 5 2 4h-6l-8-7z" fill="#0A0929" />
    <path transform="translate(353,618)" d="m0 0h13v3l-2 2-7 1-5-5z" fill="#0A0927" />
    <path transform="translate(701,203)" d="m0 0 3 1 10 17v2l-3-1v-2h-2l-4-8-4-6z" fill="#0B0A2B" />
    <path transform="translate(80,564)" d="m0 0 4 2 1 4 2 1 3 10-5-3-5-9z" fill="#0B092B" />
    <path transform="translate(446,198)" d="m0 0 4 3 1 6-1 3h-4z" fill="#0A0927" />
    <path transform="translate(332,44)" d="m0 0h11v1l-14 3h-7v-2z" fill="#0B0A2B" />
    <path transform="translate(694,634)" d="m0 0 1 3-2 4-5 4-5 5v-3l9-10z" fill="#0A0927" />
    <path transform="translate(794,449)" d="m0 0h1v8l-4 1-1-6z" fill="#0A0928" />
    <path transform="translate(775,422)" d="m0 0h2v12l-3-1v-10z" fill="#0C0A2E" />
    <path transform="translate(255,279)" d="m0 0h1v20l-2-4-1-10z" fill="#0A0927" />
    <path transform="translate(449,229)" d="m0 0 3 1v9l-3 1-1-6z" fill="#0E0B33" />
    <path transform="translate(104,193)" d="m0 0 1 3-4 6-6 4 2-5 5-5z" fill="#0B0A2B" />
    <path transform="translate(519,536)" d="m0 0 2 1-5 3-1 2-8 2-2-2z" fill="#0D0A2E" />
    <path transform="translate(681,176)" d="m0 0 6 4 4 6-1 3-3-4v-2h-2v-2h-2z" fill="#0B0A2C" />
    <path transform="translate(759,283)" d="m0 0h2v2h2v8l-3-1z" fill="#0A0927" />
    <path transform="translate(95,590)" d="m0 0 4 1 4 7v2l-4-2-4-6z" fill="#0A0927" />
    <path transform="translate(737,277)" d="m0 0 3 1 2 6-1 4v-2l-3-1-1-6z" fill="#0B092A" />
    <path transform="translate(80,601)" d="m0 0 7 7 2 7-5-5-3-5z" fill="#0A0927" />
    <path transform="translate(755,272)" d="m0 0h2l2 3v7l-2-1v-2h-2z" fill="#0A0928" />
    <path transform="translate(651,142)" d="m0 0 4 2 5 5-1 4-4-4v-3h-2v-2h-2z" fill="#0B092B" />
</svg>