<svg width="24" height="24" viewBox="0 0 24 24" fill="none" xmlns="http://www.w3.org/2000/svg">
    <circle cx="12" cy="12" r="12" fill="white" />
    <path
        d="M19.5696 5.03686L18.9106 5.69584C20.4831 7.4154 21.3551 9.66117 21.3551 11.9913C21.3551 14.3214 20.4831 16.5672 18.9106 18.2867L19.5696 18.9457C21.3183 17.0489 22.2892 14.5635 22.2892 11.9836C22.2892 9.4037 21.3183 6.91829 19.5696 5.02148V5.03686Z"
        fill="#5A5564" />
    <path
        d="M5.71098 5.09364C7.43054 3.52121 9.6763 2.64922 12.0064 2.64922C14.3365 2.64922 16.5823 3.52121 18.3019 5.09364L18.9608 4.43466C17.064 2.68595 14.5786 1.71509 11.9987 1.71509C9.41884 1.71509 6.93342 2.68595 5.03662 4.43466L5.71098 5.09364Z"
        fill="#5A5564" />
    <path
        d="M5.09389 18.2933C3.52332 16.5741 2.65247 14.3298 2.65247 12.0012C2.65247 9.6726 3.52332 7.42821 5.09389 5.70903L4.43491 5.05005C2.6862 6.94685 1.71533 9.43227 1.71533 12.0122C1.71533 14.5921 2.6862 17.0775 4.43491 18.9743L5.09389 18.2933Z"
        fill="#5A5564" />
    <path
        d="M18.2931 18.9016C16.5735 20.474 14.3278 21.346 11.9976 21.346C9.66752 21.346 7.42176 20.474 5.70219 18.9016L5.04321 19.5606C6.94001 21.3093 9.42543 22.2802 12.0053 22.2802C14.5852 22.2802 17.0706 21.3093 18.9674 19.5606L18.2931 18.9016Z"
        fill="#5A5564" />
    <path
        d="M16.1605 9.80082C16.0287 8.42575 14.8426 7.96447 13.3423 7.82388V5.93042H12.1825V7.78874C11.8772 7.78874 11.5652 7.78874 11.2555 7.78874V5.93042H10.1045V7.83706H7.75195V9.07814C7.75195 9.07814 8.60863 9.06277 8.59545 9.07814C8.74991 9.06115 8.90494 9.10478 9.02787 9.19984C9.15079 9.29491 9.23202 9.43398 9.25442 9.58775V14.8069C9.25112 14.8611 9.23698 14.9141 9.21284 14.9628C9.18869 15.0115 9.15503 15.0548 9.11384 15.0902C9.07343 15.1263 9.02613 15.1539 8.9748 15.1713C8.92346 15.1886 8.86914 15.1954 8.81511 15.1913C8.83048 15.2044 7.97161 15.1913 7.97161 15.1913L7.75195 16.5773H10.0825V18.5147H11.2423V16.6059H12.1693V18.5059H13.3313V16.5905C15.2907 16.4719 16.657 15.9886 16.8283 14.1545C16.9667 12.6784 16.2725 12.0194 15.1633 11.7536C15.8376 11.4219 16.255 10.8069 16.1605 9.80082ZM14.535 13.926C14.535 15.367 12.0661 15.2022 11.2797 15.2022V12.6454C12.0661 12.6476 14.535 12.4214 14.535 13.926ZM13.9969 10.3236C13.9969 11.6416 11.9365 11.4812 11.2819 11.4812V9.15722C11.9365 9.15722 13.9969 8.95074 13.9969 10.3236Z"
        fill="#F09242" />
    <path
        d="M11.9978 24C9.62462 23.9996 7.30485 23.2955 5.33179 21.9767C3.35874 20.658 1.82101 18.7838 0.913031 16.5912C0.00505138 14.3986 -0.232403 11.986 0.230689 9.65838C0.693782 7.33082 1.83663 5.19282 3.51472 3.51472C5.19282 1.83663 7.33082 0.693782 9.65838 0.230689C11.986 -0.232403 14.3986 0.00505138 16.5912 0.913031C18.7838 1.82101 20.658 3.35874 21.9767 5.33179C23.2955 7.30485 23.9996 9.62462 24 11.9978C24.0003 13.574 23.69 15.1349 23.087 16.5912C22.4839 18.0475 21.5999 19.3707 20.4853 20.4853C19.3707 21.5999 18.0475 22.4839 16.5912 23.087C15.1349 23.69 13.574 24.0003 11.9978 24ZM11.9978 0.935755C9.81137 0.937492 7.67453 1.58738 5.85735 2.80327C4.04018 4.01916 2.62426 5.74648 1.78855 7.7669C0.952839 9.78732 0.734858 12.0101 1.16216 14.1544C1.58945 16.2987 2.64285 18.2682 4.1892 19.8139C5.73555 21.3596 7.70544 22.4123 9.84989 22.8387C11.9943 23.2652 14.2171 23.0463 16.2372 22.2098C18.2573 21.3733 19.984 19.9567 21.1992 18.139C22.4143 16.3214 23.0634 14.1842 23.0643 11.9978C23.0648 10.5446 22.779 9.1055 22.223 7.76285C21.667 6.42019 20.8518 5.20029 19.824 4.17291C18.7962 3.14553 17.576 2.33082 16.2331 1.77537C14.8902 1.21991 13.451 0.9346 11.9978 0.935755Z"
        fill="#282138" />
</svg>