<svg width="16" height="16" viewBox="0 0 16 16" fill="none" xmlns="http://www.w3.org/2000/svg">
  <path
    d="M4.66683 4.66671V4.00004C4.66683 3.06662 4.66683 2.59991 4.84849 2.24339C5.00827 1.92979 5.26324 1.67482 5.57685 1.51503C5.93336 1.33337 6.40008 1.33337 7.3335 1.33337H12.0002C12.9336 1.33337 13.4003 1.33337 13.7568 1.51503C14.0704 1.67482 14.3254 1.92979 14.4852 2.24339C14.6668 2.59991 14.6668 3.06662 14.6668 4.00004V8.66671C14.6668 9.60013 14.6668 10.0668 14.4852 10.4234C14.3254 10.737 14.0704 10.9919 13.7568 11.1517C13.4003 11.3334 12.9336 11.3334 12.0002 11.3334H11.3335M11.3335 7.33337V12C11.3335 12.9335 11.3335 13.4002 11.1518 13.7567C10.9921 14.0703 10.7371 14.3253 10.4235 14.4851C10.067 14.6667 9.60025 14.6667 8.66683 14.6667H4.00016C3.06674 14.6667 2.60003 14.6667 2.24351 14.4851C1.92991 14.3253 1.67494 14.0703 1.51515 13.7567C1.3335 13.4002 1.3335 12.9335 1.3335 12V7.33337C1.3335 6.39995 1.3335 5.93324 1.51515 5.57672C1.67494 5.26312 1.92991 5.00815 2.24351 4.84836C2.60003 4.66671 3.06674 4.66671 4.00016 4.66671H8.66683C9.60025 4.66671 10.067 4.66671 10.4235 4.84836C10.7371 5.00815 10.9921 5.26312 11.1518 5.57672C11.3335 5.93324 11.3335 6.39995 11.3335 7.33337Z"
    stroke="#6A8787" stroke-width="1.66667" stroke-linecap="round" />
</svg>