<svg viewBox="0 0 128 28" fill="none" xmlns="http://www.w3.org/2000/svg">
  <path
    d="M9.27817 4.15615H4.12441V9.3427H8.43674V13.6825H0V0H13.5905V23.8438H23.6877V13.6825H14.4319V9.3427H28V28H9.27817V4.15615Z"
    fill="#FEFFFF" />
  <path d="M47.1458 20.5972H38.487V7.64354H40.7305V18.4691H47.1458V20.5972Z" fill="#FEFFFF" />
  <path
    d="M54.2539 20.8747C50.6383 20.8747 48.8027 18.284 48.8027 14.1204C48.8027 9.95669 50.6383 7.36597 54.2539 7.36597C57.8509 7.36597 59.6865 9.95669 59.6865 14.1204C59.6865 18.284 57.8509 20.8747 54.2539 20.8747ZM54.2539 18.8022C57.0907 18.8022 57.443 15.7488 57.443 14.1204C57.443 12.4919 57.0907 9.43855 54.2539 9.43855C51.4171 9.43855 51.0462 12.4919 51.0462 14.1204C51.0462 15.7488 51.4171 18.8022 54.2539 18.8022Z"
    fill="#FEFFFF" />
  <path
    d="M65.3078 20.5972H63.0643V7.64354H65.2893L68.7936 16.0634L72.3164 7.64354H74.5229V20.5972H72.2794V13.0471L69.4982 19.4128H68.1076L65.3078 13.0471V20.5972Z"
    fill="#FEFFFF" />
  <path
    d="M84.9387 13.8058C87.4974 14.3239 87.9795 15.7673 87.9795 16.8961C87.9795 20.5972 84.0673 20.5972 82.6767 20.5972H78.4493V7.64354H82.5284C83.9189 7.64354 87.9053 7.64354 87.9053 10.993C87.9053 12.0663 87.4418 13.3987 84.9387 13.8058ZM82.3429 9.77164H80.6928V12.8065H82.3429C84.0487 12.8065 85.6433 12.788 85.6433 11.3076C85.6433 9.82715 83.8262 9.77164 82.3429 9.77164ZM80.6928 18.4691H82.0648C84.6977 18.4691 85.736 18.0434 85.736 16.7666C85.736 15.0271 83.9004 14.8235 82.0648 14.8235H80.6928V18.4691Z"
    fill="#FEFFFF" />
  <path
    d="M101.772 20.5972H99.4725L98.5083 17.9139H93.187L92.2228 20.5972H89.9237L94.7259 7.64354H96.9694L101.772 20.5972ZM95.8384 10.5674L93.9286 15.8598H97.7481L95.8384 10.5674Z"
    fill="#FEFFFF" />
  <path
    d="M110.919 15.0456L113.533 20.5972H111.049L108.527 15.3047H106.302V20.5972H104.059V7.64354H108.62C111.772 7.64354 113.515 8.62432 113.515 11.4001C113.515 13.4727 112.606 14.583 110.919 15.0456ZM108.527 9.73463H106.302V13.2136H108.527C110.437 13.2136 111.308 12.7325 111.308 11.4741C111.308 10.1973 110.381 9.73463 108.527 9.73463Z"
    fill="#FEFFFF" />
  <path
    d="M120.272 20.5972H116.583V7.64354H120.272C124.166 7.64354 126.669 10.1788 126.669 14.1574C126.669 18.0805 124.166 20.5972 120.272 20.5972ZM118.826 9.77164V18.4691H120.439C122.905 18.4691 124.426 16.6926 124.426 14.1574C124.426 11.5296 122.831 9.77164 120.439 9.77164H118.826Z"
    fill="#FEFFFF" />
</svg>