<svg width="128" height="28" viewBox="0 0 128 28" fill="none" xmlns="http://www.w3.org/2000/svg">
  <path
    d="M9.27817 4.15615H4.12441V9.3427H8.43674V13.6825H0V0H13.5905V23.8438H23.6877V13.6825H14.4319V9.3427H28V28H9.27817V4.15615Z"
    fill="#20212F" />
  <path d="M47.1461 20.5972H38.4873V7.64354H40.7308V18.4691H47.1461V20.5972Z" fill="#20212F" />
  <path
    d="M54.2542 20.8747C50.6387 20.8747 48.8031 18.284 48.8031 14.1204C48.8031 9.95669 50.6387 7.36597 54.2542 7.36597C57.8512 7.36597 59.6868 9.95669 59.6868 14.1204C59.6868 18.284 57.8512 20.8747 54.2542 20.8747ZM54.2542 18.8022C57.091 18.8022 57.4433 15.7488 57.4433 14.1204C57.4433 12.4919 57.091 9.43855 54.2542 9.43855C51.4174 9.43855 51.0466 12.4919 51.0466 14.1204C51.0466 15.7488 51.4174 18.8022 54.2542 18.8022Z"
    fill="#20212F" />
  <path
    d="M65.3082 20.5972H63.0647V7.64354H65.2896L68.7939 16.0634L72.3168 7.64354H74.5232V20.5972H72.2797V13.0471L69.4985 19.4128H68.1079L65.3082 13.0471V20.5972Z"
    fill="#20212F" />
  <path
    d="M84.939 13.8058C87.4977 14.3239 87.9798 15.7673 87.9798 16.8961C87.9798 20.5972 84.0676 20.5972 82.677 20.5972H78.4496V7.64354H82.5287C83.9193 7.64354 87.9057 7.64354 87.9057 10.993C87.9057 12.0663 87.4421 13.3987 84.939 13.8058ZM82.3433 9.77164H80.6931V12.8065H82.3433C84.0491 12.8065 85.6436 12.788 85.6436 11.3076C85.6436 9.82715 83.8266 9.77164 82.3433 9.77164ZM80.6931 18.4691H82.0651C84.698 18.4691 85.7363 18.0434 85.7363 16.7666C85.7363 15.0271 83.9007 14.8235 82.0651 14.8235H80.6931V18.4691Z"
    fill="#20212F" />
  <path
    d="M101.772 20.5972H99.4728L98.5087 17.9139H93.1873L92.2232 20.5972H89.924L94.7262 7.64354H96.9697L101.772 20.5972ZM95.8387 10.5674L93.929 15.8598H97.7485L95.8387 10.5674Z"
    fill="#20212F" />
  <path
    d="M110.919 15.0456L113.534 20.5972H111.049L108.527 15.3047H106.303V20.5972H104.059V7.64354H108.62C111.772 7.64354 113.515 8.62432 113.515 11.4001C113.515 13.4727 112.607 14.583 110.919 15.0456ZM108.527 9.73463H106.303V13.2136H108.527C110.437 13.2136 111.309 12.7325 111.309 11.4741C111.309 10.1973 110.382 9.73463 108.527 9.73463Z"
    fill="#20212F" />
  <path
    d="M120.273 20.5972H116.583V7.64354H120.273C124.166 7.64354 126.67 10.1788 126.67 14.1574C126.67 18.0805 124.166 20.5972 120.273 20.5972ZM118.827 9.77164V18.4691H120.44C122.906 18.4691 124.426 16.6926 124.426 14.1574C124.426 11.5296 122.832 9.77164 120.44 9.77164H118.827Z"
    fill="#20212F" />
</svg>